<svg xmlns="http://www.w3.org/2000/svg" width="640" height="640" viewBox="0 0 640 640" fill="none">
  <rect width="640" height="640" rx="20" fill="#ffffff"/>
  <g transform="translate(80 120)">
    <!-- megaphone body -->
    <path d="M72 216c0 0 88-8 152-48 64-40 120-104 136-120 16-16 48-12 56 8 8 20 0 44-16 60-16 16-76 72-136 112-60 40-176 88-208 56-32-32 16-80 16-80z" fill="#2b7bf6"/>
    <!-- handle -->
    <rect x="18" y="244" width="44" height="96" rx="8" fill="#1f4fc6" transform="rotate(-14 18 244)"/>
    <!-- speaker cone -->
    <path d="M320 56c24 0 44 18 44 40v48c0 22-20 40-44 40H312V56h8z" fill="#dbeeff" opacity="0.95"/>
    <!-- accent circles -->
    <circle cx="380" cy="28" r="14" fill="#ff6b6b"/>
    <circle cx="420" cy="8" r="10" fill="#ffd166"/>
    <!-- small like icons -->
    <g transform="translate(420 64) scale(0.9)">
      <path d="M12 2c2-2 6-2 8 0 2 2 2 6 0 8l-8 8-8-8c-2-2-2-6 0-8 2-2 6-2 8 0z" fill="#ff6b6b"/>
    </g>
  </g>
</svg>
